<svg id="Icon" xmlns="http://www.w3.org/2000/svg" xmlns:xlink="http://www.w3.org/1999/xlink" width="102" height="102" viewBox="0 0 102 102">
  <defs>
    <style>
      .cls-1 {
        fill: #363636;
        fill-opacity: 0;
        stroke: #e5493a;
        stroke-linejoin: round;
        stroke-width: 2px;
      }

      .cls-2 {
        fill-rule: evenodd;
        filter: url(#filter);
      }
    </style>
    <filter id="filter" x="704" y="1061.19" width="41.563" height="39.69" filterUnits="userSpaceOnUse">
      <feFlood result="flood" flood-color="#e5493a"/>
      <feComposite result="composite" operator="in" in2="SourceGraphic"/>
      <feBlend result="blend" in2="SourceGraphic"/>
    </filter>
  </defs>
  <circle id="circle" class="cls-1" cx="51" cy="51" r="50"/>
  <path id="icon-2" data-name="icon" class="cls-2" d="M742.552,1075.27c-0.645-1.99.235-4.77-.971-6.42-1.218-1.67-4.15-1.69-5.823-2.9-1.657-1.21-2.573-3.99-4.564-4.63-1.92-.62-4.292,1.07-6.421,1.07s-4.5-1.69-6.421-1.07c-1.991.64-2.907,3.42-4.565,4.63s-4.6,1.23-5.821,2.9c-1.206,1.65-.326,4.43-0.972,6.42-0.624,1.91-3,3.64-3,5.76s2.372,3.85,3,5.76c0.645,1.99-.235,4.77.972,6.42,1.218,1.67,4.148,1.69,5.822,2.9,1.657,1.21,2.573,3.99,4.564,4.64,1.921,0.62,4.292-1.08,6.421-1.08s4.5,1.7,6.421,1.08c1.99-.65,2.907-3.43,4.564-4.63,1.673-1.22,4.6-1.24,5.823-2.91,1.205-1.65.325-4.43,0.97-6.41,0.625-1.92,3-3.65,3-5.77S743.176,1077.18,742.552,1075.27Zm-17.779,20.3a14.54,14.54,0,1,1,14.577-14.54A14.573,14.573,0,0,1,724.773,1095.57Zm0-26.71a12.17,12.17,0,1,0,12.2,12.17A12.2,12.2,0,0,0,724.773,1068.86Zm8.123,10.74-3.947,3.27,1.267,4.96a0.725,0.725,0,0,1-.28.77,0.733,0.733,0,0,1-.826.03l-4.337-2.73-4.336,2.73a0.733,0.733,0,0,1-.826-0.03,0.722,0.722,0,0,1-.28-0.77l1.267-4.96-3.947-3.27a0.725,0.725,0,0,1-.229-0.79,0.747,0.747,0,0,1,.652-0.51l5.119-.33,1.9-4.75a0.738,0.738,0,0,1,1.367,0l1.9,4.75,5.119,0.33a0.748,0.748,0,0,1,.652.51A0.731,0.731,0,0,1,732.9,1079.6Z" transform="translate(-674 -1030)"/>
</svg>
