<svg id="Icon" xmlns="http://www.w3.org/2000/svg" xmlns:xlink="http://www.w3.org/1999/xlink" width="101" height="101" viewBox="0 0 101 101">
  <defs>
    <style>
      .cls-1 {
        fill: #363636;
        fill-opacity: 0;
        stroke: #363636;
        stroke-linejoin: round;
        stroke-width: 1px;
      }

      .cls-2 {
        fill-rule: evenodd;
        filter: url(#filter);
      }
    </style>
    <filter id="filter" x="411.125" y="1061.41" width="28.375" height="39.18" filterUnits="userSpaceOnUse">
      <feFlood result="flood" flood-color="#636363"/>
      <feComposite result="composite" operator="in" in2="SourceGraphic"/>
      <feBlend result="blend" in2="SourceGraphic"/>
    </filter>
  </defs>
  <circle id="circle" class="cls-1" cx="50.5" cy="50.5" r="50"/>
  <path id="icon-2" data-name="icon" class="cls-2" d="M435.214,1061.4a22.649,22.649,0,0,1-6.77,4.39c-26.046,9.34-15.061,27.55-14.7,27.61a14.924,14.924,0,0,1,3.434-3.96c12.519-9.13,15.064-19.64,15.064-19.64s-2.809,12.65-13.948,20.51c-2.46,1.74-4.125,6.02-4.83,10.29,0,0,1.743-.7,2.493-0.89a13.7,13.7,0,0,1,1.938-5.32c15.567,1.84,20.665-10.6,21.331-14.94A26.628,26.628,0,0,0,435.214,1061.4Z" transform="translate(-374.5 -1030.5)"/>
</svg>
