<svg xmlns="http://www.w3.org/2000/svg" xmlns:xlink="http://www.w3.org/1999/xlink" width="17" height="12.03" viewBox="0 0 17 12.03">
  <defs>
    <style>
      .cls-1 {
        fill-rule: evenodd;
        filter: url(#filter);
      }
    </style>
    <filter id="filter" x="613" y="5177.97" width="17" height="12.03" filterUnits="userSpaceOnUse">
      <feFlood result="flood" flood-color="#363636"/>
      <feComposite result="composite" operator="in" in2="SourceGraphic"/>
      <feBlend result="blend" in2="SourceGraphic"/>
    </filter>
  </defs>
  <path id="icon" class="cls-1" d="M613.793,5178.07a1.216,1.216,0,0,1,.428-0.09h14.558a1.226,1.226,0,0,1,.428.09l-6.523,6.37a1.683,1.683,0,0,1-2.369,0Zm16.038,11.33a1.338,1.338,0,0,0,.182-0.67v-9.47a1.283,1.283,0,0,0-.094-0.48l-6.1,5.96Zm-6.568-4.13a2.627,2.627,0,0,1-3.527,0l-6,4.64a1.118,1.118,0,0,0,.483.1h14.558a1.124,1.124,0,0,0,.483-0.1Zm-10.183-6.49a1.3,1.3,0,0,0-.093.48v9.47a1.338,1.338,0,0,0,.182.67l6.015-4.66Z" transform="translate(-613 -5177.97)"/>
</svg>
