<svg id="Icon" xmlns="http://www.w3.org/2000/svg" xmlns:xlink="http://www.w3.org/1999/xlink" width="101" height="101" viewBox="0 0 101 101">
  <defs>
    <style>
      .cls-1 {
        fill: #363636;
        fill-opacity: 0;
        stroke: #363636;
        stroke-linejoin: round;
        stroke-width: 1px;
      }

      .cls-2 {
        fill-rule: evenodd;
        filter: url(#filter);
      }
    </style>
    <filter id="filter" x="1013" y="1060.91" width="25" height="40.09" filterUnits="userSpaceOnUse">
      <feFlood result="flood" flood-color="#636363"/>
      <feComposite result="composite" operator="in" in2="SourceGraphic"/>
      <feBlend result="blend" in2="SourceGraphic"/>
    </filter>
  </defs>
  <circle id="circle" class="cls-1" cx="50.5" cy="50.5" r="50"/>
  <path id="icon-2" data-name="icon" class="cls-2" d="M1034.74,1060.89h-18.47a3.237,3.237,0,0,0-3.26,3.21v33.69a3.229,3.229,0,0,0,3.26,3.2h18.47a3.229,3.229,0,0,0,3.26-3.2V1064.1A3.237,3.237,0,0,0,1034.74,1060.89Zm-12.22,2.93a0.788,0.788,0,0,1,.8-0.79h4.37a0.794,0.794,0,0,1,.8.79v0.02a0.794,0.794,0,0,1-.8.79h-4.37a0.788,0.788,0,0,1-.8-0.79v-0.02Zm2.98,35.97a1.735,1.735,0,1,1,1.77-1.74A1.752,1.752,0,0,1,1025.5,1099.79Zm9.78-5.21a0.536,0.536,0,0,1-.54.53h-18.47a0.536,0.536,0,0,1-.54-0.53v-27.27a0.538,0.538,0,0,1,.54-0.54h18.47a0.538,0.538,0,0,1,.54.54v27.27Zm-2.71-16.04h-14.13a0.529,0.529,0,0,0-.54.53v0.01a0.536,0.536,0,0,0,.54.53h14.13a0.536,0.536,0,0,0,.54-0.53v-0.01A0.529,0.529,0,0,0,1032.57,1078.54Zm0-8.56h-1.63a0.546,0.546,0,0,0-.55.54v1.6a0.546,0.546,0,0,0,.55.54h1.63a0.538,0.538,0,0,0,.54-0.54v-1.6A0.538,0.538,0,0,0,1032.57,1069.98Zm-5.98,2.68h1.63a0.538,0.538,0,0,0,.54-0.54v-1.6a0.538,0.538,0,0,0-.54-0.54h-1.63a0.538,0.538,0,0,0-.54.54v1.6A0.538,0.538,0,0,0,1026.59,1072.66Zm5.98,9.09h-14.13a0.527,0.527,0,0,0-.54.52v0.02a0.536,0.536,0,0,0,.54.53h14.13a0.536,0.536,0,0,0,.54-0.53v-0.02A0.527,0.527,0,0,0,1032.57,1081.75Zm-14.13-5.35h9.24a0.536,0.536,0,0,0,.54-0.53v-0.01a0.536,0.536,0,0,0-.54-0.53h-9.24a0.536,0.536,0,0,0-.54.53v0.01A0.536,0.536,0,0,0,1018.44,1076.4Zm14.13,8.55h-14.13a0.536,0.536,0,0,0-.54.53v0.01a0.529,0.529,0,0,0,.54.53h14.13a0.529,0.529,0,0,0,.54-0.53v-0.01A0.536,0.536,0,0,0,1032.57,1084.95Zm-14.13-12.29h1.63a0.538,0.538,0,0,0,.54-0.54v-1.6a0.538,0.538,0,0,0-.54-0.54h-1.63a0.538,0.538,0,0,0-.54.54v1.6A0.538,0.538,0,0,0,1018.44,1072.66Zm4.35,0h1.63a0.538,0.538,0,0,0,.54-0.54v-1.6a0.538,0.538,0,0,0-.54-0.54h-1.63a0.538,0.538,0,0,0-.54.54v1.6A0.532,0.532,0,0,0,1022.79,1072.66Zm9.78,18.71h-14.13a0.536,0.536,0,0,0-.54.53v0.01a0.536,0.536,0,0,0,.54.53h14.13a0.536,0.536,0,0,0,.54-0.53v-0.01A0.536,0.536,0,0,0,1032.57,1091.37Zm0-3.21h-14.13a0.536,0.536,0,0,0-.54.53v0.01a0.536,0.536,0,0,0,.54.53h14.13a0.536,0.536,0,0,0,.54-0.53v-0.01A0.536,0.536,0,0,0,1032.57,1088.16Z" transform="translate(-974.5 -1030.5)"/>
</svg>
